<svg id="svg" version="1.1" xmlns="http://www.w3.org/2000/svg" xmlns:xlink="http://www.w3.org/1999/xlink" width="400" height="400" viewBox="0, 0, 400,400"><g id="svgg"><path id="path0" d="M100.600 124.400 C 100.747 124.639,100.263 124.800,99.400 124.800 C 98.537 124.800,98.053 124.961,98.200 125.200 C 98.336 125.420,98.160 125.600,97.810 125.600 C 96.852 125.600,95.168 126.784,93.600 128.559 C 92.830 129.431,89.230 133.081,85.600 136.670 C 76.212 145.953,76.623 145.541,69.417 152.900 C 65.808 156.585,62.652 159.600,62.404 159.600 C 62.156 159.600,62.064 159.780,62.200 160.000 C 62.336 160.220,62.244 160.400,61.995 160.400 C 61.411 160.400,60.400 161.411,60.400 161.995 C 60.400 162.244,60.220 162.336,60.000 162.200 C 59.780 162.064,59.600 162.142,59.600 162.373 C 59.600 162.745,51.050 171.436,45.156 177.055 C 41.802 180.253,38.784 183.597,38.306 184.646 C 38.067 185.170,37.720 185.600,37.536 185.600 C 37.351 185.600,37.200 186.140,37.200 186.800 C 37.200 187.460,37.038 188.000,36.840 188.000 C 36.642 188.000,36.494 189.170,36.511 190.600 C 36.528 192.030,36.690 193.200,36.871 193.200 C 37.052 193.200,37.200 193.740,37.200 194.400 C 37.200 195.060,37.380 195.600,37.600 195.600 C 37.820 195.600,38.000 195.841,38.000 196.136 C 38.000 196.786,41.347 200.400,41.948 200.400 C 42.183 200.400,43.042 200.774,43.857 201.232 C 45.050 201.902,45.773 202.021,47.569 201.843 C 52.537 201.352,54.000 201.106,54.000 200.761 C 54.000 200.563,54.911 200.400,56.024 200.400 C 57.271 200.400,57.952 200.247,57.800 200.000 C 57.647 199.752,58.388 199.600,59.753 199.600 C 60.963 199.600,62.064 199.420,62.200 199.200 C 62.336 198.980,63.301 198.800,64.344 198.800 C 65.387 198.800,66.411 198.638,66.620 198.441 C 66.973 198.108,67.784 197.952,72.300 197.347 L 74.000 197.119 74.000 242.326 C 74.000 278.118,74.104 287.575,74.500 287.735 C 74.900 287.896,74.900 287.943,74.500 287.968 C 74.225 287.986,74.000 288.191,74.000 288.424 C 74.000 288.657,74.159 288.749,74.353 288.629 C 74.546 288.509,74.802 290.074,74.921 292.106 C 75.208 297.003,76.042 301.039,77.233 303.295 C 77.435 303.677,77.600 304.245,77.600 304.557 C 77.600 305.227,79.266 308.540,79.700 308.733 C 79.865 308.807,80.000 309.212,80.000 309.633 C 80.000 310.055,80.160 310.400,80.357 310.400 C 80.553 310.400,80.987 311.085,81.322 311.923 C 81.657 312.760,82.217 313.682,82.566 313.972 C 82.915 314.261,83.200 314.719,83.200 314.990 C 83.200 315.260,83.740 316.046,84.400 316.737 C 85.060 317.428,85.600 318.150,85.600 318.343 C 85.600 318.899,89.872 323.194,90.150 322.917 C 90.287 322.779,90.401 322.922,90.403 323.233 C 90.404 323.545,90.989 324.205,91.703 324.700 C 92.416 325.196,93.718 326.231,94.596 327.000 C 95.473 327.770,96.352 328.400,96.549 328.400 C 96.745 328.400,97.197 328.716,97.553 329.103 C 97.909 329.489,98.695 330.060,99.300 330.370 C 99.905 330.681,100.400 331.085,100.400 331.268 C 100.400 331.450,100.760 331.600,101.200 331.600 C 101.640 331.600,102.000 331.780,102.000 332.000 C 102.000 332.220,102.360 332.400,102.800 332.400 C 103.240 332.400,103.600 332.580,103.600 332.800 C 103.600 333.020,103.960 333.200,104.400 333.200 C 104.840 333.200,105.200 333.380,105.200 333.600 C 105.200 333.820,105.549 334.000,105.976 334.000 C 106.403 334.000,106.864 334.180,107.000 334.400 C 107.136 334.620,107.687 334.800,108.224 334.800 C 108.761 334.800,109.200 334.980,109.200 335.200 C 109.200 335.420,109.740 335.600,110.400 335.600 C 111.060 335.600,111.600 335.780,111.600 336.000 C 111.600 336.220,112.230 336.400,113.000 336.400 C 113.770 336.400,114.400 336.580,114.400 336.800 C 114.400 337.020,115.289 337.200,116.376 337.200 C 117.463 337.200,118.464 337.380,118.600 337.600 C 118.942 338.153,228.258 338.153,228.600 337.600 C 228.736 337.380,229.467 337.200,230.224 337.200 C 230.981 337.200,231.600 337.020,231.600 336.800 C 231.600 336.580,231.949 336.400,232.376 336.400 C 232.803 336.400,233.264 336.220,233.400 336.000 C 233.536 335.780,233.963 335.600,234.348 335.600 C 234.734 335.600,235.436 335.240,235.908 334.800 C 236.380 334.360,237.004 334.000,237.295 334.000 C 237.586 334.000,238.083 333.640,238.400 333.200 C 238.717 332.760,239.156 332.400,239.375 332.400 C 239.942 332.400,244.800 327.272,244.800 326.674 C 244.800 326.400,245.160 325.917,245.600 325.600 C 246.040 325.283,246.400 324.793,246.400 324.512 C 246.400 324.230,246.580 324.000,246.800 324.000 C 247.020 324.000,247.200 323.640,247.200 323.200 C 247.200 322.760,247.380 322.400,247.600 322.400 C 247.820 322.400,248.000 322.040,248.000 321.600 C 248.000 321.160,248.180 320.800,248.400 320.800 C 248.620 320.800,248.800 320.350,248.800 319.800 C 248.800 319.250,248.980 318.800,249.200 318.800 C 249.420 318.800,249.600 318.170,249.600 317.400 C 249.600 316.630,249.780 316.000,250.000 316.000 C 250.251 316.000,250.400 313.533,250.400 309.400 C 250.400 305.267,250.251 302.800,250.000 302.800 C 249.780 302.800,249.600 302.271,249.600 301.624 C 249.600 300.977,249.420 300.336,249.200 300.200 C 248.980 300.064,248.800 299.513,248.800 298.976 C 248.800 298.439,248.620 298.000,248.400 298.000 C 248.180 298.000,248.000 297.640,248.000 297.200 C 248.000 296.760,247.820 296.400,247.600 296.400 C 247.380 296.400,247.200 296.040,247.200 295.600 C 247.200 295.160,247.020 294.800,246.800 294.800 C 246.580 294.800,246.400 294.594,246.400 294.343 C 246.400 294.092,245.860 293.371,245.200 292.740 C 244.540 292.109,244.000 291.450,244.000 291.275 C 244.000 290.864,241.382 288.000,241.007 288.000 C 240.849 288.000,240.217 287.460,239.600 286.800 C 238.983 286.140,238.274 285.600,238.023 285.600 C 237.772 285.600,237.180 285.240,236.708 284.800 C 236.236 284.360,235.613 284.000,235.325 284.000 C 235.036 284.000,234.800 283.820,234.800 283.600 C 234.800 283.380,234.260 283.200,233.600 283.200 C 232.940 283.200,232.400 283.020,232.400 282.800 C 232.400 282.580,232.040 282.400,231.600 282.400 C 231.160 282.400,230.800 282.220,230.800 282.000 C 230.800 281.780,230.080 281.600,229.200 281.600 C 228.320 281.600,227.600 281.420,227.600 281.200 C 227.600 280.936,214.467 280.800,189.000 280.800 C 163.533 280.800,150.400 280.664,150.400 280.400 C 150.400 280.175,149.275 280.000,147.824 280.000 C 146.407 280.000,145.136 279.820,145.000 279.600 C 144.864 279.380,144.403 279.200,143.976 279.200 C 143.549 279.200,143.200 279.020,143.200 278.800 C 143.200 278.580,142.840 278.400,142.400 278.400 C 141.960 278.400,141.600 278.220,141.600 278.000 C 141.600 277.780,141.432 277.645,141.226 277.700 C 140.683 277.845,136.400 274.442,136.400 273.865 C 136.400 273.596,136.040 273.117,135.600 272.800 C 135.160 272.483,134.800 271.993,134.800 271.712 C 134.800 271.430,134.620 271.200,134.400 271.200 C 134.180 271.200,134.000 270.930,134.000 270.600 C 134.000 270.270,133.820 270.000,133.600 270.000 C 133.380 270.000,133.200 269.460,133.200 268.800 C 133.200 268.140,133.020 267.600,132.800 267.600 C 132.580 267.600,132.400 266.801,132.400 265.824 C 132.400 264.847,132.220 263.936,132.000 263.800 C 131.739 263.638,131.600 252.063,131.600 230.376 L 131.600 197.200 133.600 197.200 C 134.700 197.200,135.600 197.380,135.600 197.600 C 135.600 197.820,136.500 198.000,137.600 198.000 C 138.930 198.000,139.602 198.167,139.606 198.500 C 139.610 198.833,139.742 198.800,140.000 198.400 C 140.258 198.000,140.390 197.967,140.394 198.300 C 140.398 198.616,140.990 198.800,142.000 198.800 C 142.880 198.800,143.600 198.980,143.600 199.200 C 143.600 199.420,144.590 199.600,145.800 199.600 C 147.010 199.600,148.000 199.780,148.000 200.000 C 148.000 200.220,148.900 200.400,150.000 200.400 C 151.100 200.400,152.000 200.546,152.000 200.725 C 152.000 200.904,152.851 201.095,153.891 201.148 C 154.931 201.202,155.893 201.426,156.029 201.646 C 156.323 202.123,161.200 202.017,161.200 201.534 C 161.200 201.350,161.740 201.200,162.400 201.200 C 163.060 201.200,163.600 201.020,163.600 200.800 C 163.600 200.580,163.876 200.400,164.213 200.400 C 165.009 200.400,167.600 197.809,167.600 197.013 C 167.600 196.676,167.736 196.400,167.902 196.400 C 168.396 196.400,169.139 194.318,169.259 192.600 C 169.321 191.720,169.556 190.872,169.782 190.717 C 170.055 190.528,170.027 190.267,169.697 189.937 C 169.423 189.663,169.200 188.756,169.200 187.920 C 169.200 187.084,169.020 186.400,168.800 186.400 C 168.580 186.400,168.400 186.128,168.400 185.795 C 168.400 184.509,162.945 178.470,158.378 174.700 C 157.645 174.095,157.155 173.600,157.288 173.600 C 157.422 173.600,156.564 172.610,155.383 171.400 C 154.201 170.190,153.036 169.200,152.794 169.200 C 152.551 169.200,152.428 169.065,152.520 168.900 C 152.741 168.504,150.148 165.985,149.839 166.294 C 149.708 166.426,149.600 166.319,149.600 166.056 C 149.600 165.434,146.150 161.983,145.839 162.295 C 145.707 162.426,145.600 162.245,145.600 161.894 C 145.600 161.542,145.240 161.140,144.800 161.000 C 144.360 160.860,143.999 160.533,143.999 160.273 C 143.998 160.013,143.486 159.457,142.861 159.038 C 142.235 158.619,141.381 157.765,140.962 157.139 C 140.543 156.514,139.987 156.002,139.727 156.001 C 139.467 156.001,139.140 155.640,139.000 155.200 C 138.860 154.760,138.458 154.400,138.106 154.400 C 137.755 154.400,137.578 154.289,137.714 154.152 C 138.019 153.848,137.245 153.048,136.300 152.690 C 135.915 152.544,135.600 152.227,135.600 151.984 C 135.600 151.390,134.576 150.400,133.962 150.400 C 133.690 150.400,133.574 150.292,133.706 150.161 C 134.015 149.852,131.496 147.259,131.100 147.480 C 130.935 147.572,130.800 147.449,130.800 147.206 C 130.800 146.964,129.810 145.799,128.600 144.617 C 127.390 143.436,126.400 142.571,126.400 142.696 C 126.400 142.820,126.030 142.490,125.579 141.961 C 123.315 139.312,121.979 138.000,121.546 138.000 C 121.282 138.000,121.175 137.892,121.307 137.759 C 121.619 137.448,119.895 135.651,119.500 135.876 C 119.335 135.970,119.200 135.844,119.200 135.595 C 119.200 135.011,118.189 134.000,117.605 134.000 C 117.356 134.000,117.235 133.865,117.334 133.700 C 117.571 133.309,116.560 132.374,116.243 132.691 C 116.109 132.824,116.000 132.710,116.000 132.438 C 116.000 131.819,115.008 130.800,114.405 130.800 C 114.156 130.800,114.030 130.665,114.124 130.500 C 114.349 130.105,112.552 128.381,112.241 128.693 C 112.108 128.825,111.987 128.678,111.971 128.367 C 111.936 127.670,109.351 125.467,108.569 125.467 C 108.256 125.467,108.000 125.317,108.000 125.133 C 108.000 124.950,107.370 124.800,106.600 124.800 C 105.830 124.800,105.200 124.620,105.200 124.400 C 105.200 124.177,104.125 124.000,102.776 124.000 C 101.263 124.000,100.446 124.150,100.600 124.400 " stroke="none" fill="#fc5c72" fill-rule="evenodd"></path><path id="path1" d="M171.554 62.402 C 171.199 62.609,170.344 62.822,169.654 62.875 C 168.964 62.927,168.400 63.112,168.400 63.285 C 168.400 63.458,168.040 63.600,167.600 63.600 C 167.160 63.600,166.799 63.735,166.797 63.900 C 166.795 64.065,166.345 64.408,165.796 64.663 C 165.248 64.917,164.908 64.949,165.041 64.733 C 165.175 64.517,164.905 64.578,164.442 64.867 C 163.979 65.156,163.600 65.529,163.600 65.696 C 163.600 65.863,163.332 66.000,163.005 66.000 C 161.932 66.000,155.200 72.300,155.200 73.303 C 155.200 73.589,154.840 74.083,154.400 74.400 C 153.960 74.717,153.600 75.307,153.600 75.712 C 153.600 76.116,153.420 76.336,153.200 76.200 C 152.980 76.064,152.800 76.233,152.800 76.576 C 152.800 76.919,152.620 77.200,152.400 77.200 C 152.180 77.200,152.000 77.555,152.000 77.988 C 152.000 78.421,151.640 79.417,151.200 80.200 C 150.760 80.983,150.400 82.159,150.400 82.812 C 150.400 83.465,150.229 84.000,150.021 84.000 C 149.798 84.000,149.642 86.715,149.642 90.611 C 149.642 94.671,149.788 97.131,150.021 96.987 C 150.232 96.857,150.400 97.373,150.400 98.153 C 150.400 98.923,150.580 99.664,150.800 99.800 C 151.020 99.936,151.200 100.487,151.200 101.024 C 151.200 101.561,151.335 102.001,151.500 102.003 C 151.859 102.007,152.800 103.944,152.800 104.680 C 152.800 104.966,152.980 105.200,153.200 105.200 C 153.420 105.200,153.600 105.406,153.600 105.657 C 153.600 105.908,154.140 106.629,154.800 107.260 C 155.460 107.891,156.000 108.550,156.000 108.725 C 156.000 109.125,158.613 112.000,158.976 112.000 C 159.123 112.000,159.819 112.539,160.522 113.198 C 161.225 113.857,162.025 114.397,162.300 114.398 C 162.575 114.399,162.800 114.547,162.800 114.726 C 162.800 115.192,165.931 116.800,166.838 116.800 C 167.257 116.800,167.600 116.980,167.600 117.200 C 167.600 117.420,167.960 117.600,168.400 117.600 C 168.840 117.600,169.200 117.743,169.200 117.918 C 169.200 118.093,169.875 118.282,170.699 118.337 C 171.524 118.393,172.370 118.610,172.579 118.819 C 172.815 119.055,187.620 119.200,211.456 119.200 C 236.689 119.200,250.038 119.338,250.200 119.600 C 250.336 119.820,251.339 120.000,252.429 120.000 C 253.519 120.000,254.723 120.159,255.105 120.353 C 255.487 120.548,256.340 120.949,257.000 121.244 C 257.660 121.540,258.920 122.222,259.800 122.759 C 260.680 123.297,261.457 123.696,261.527 123.647 C 261.597 123.598,262.189 124.242,262.844 125.079 C 263.498 125.915,264.296 126.917,264.617 127.305 C 264.938 127.692,265.200 128.187,265.200 128.405 C 265.200 128.622,265.380 128.800,265.600 128.800 C 265.820 128.800,266.000 129.034,266.000 129.320 C 266.000 130.056,266.941 131.993,267.300 131.997 C 267.465 131.999,267.600 132.864,267.600 133.920 C 267.600 134.976,267.769 136.011,267.976 136.220 C 268.198 136.444,268.403 145.311,268.476 157.880 C 268.571 174.235,268.716 179.276,269.100 179.660 C 269.375 179.935,269.600 179.981,269.600 179.763 C 269.600 179.544,273.110 175.815,277.400 171.476 C 281.690 167.138,285.200 163.442,285.200 163.264 C 285.200 163.085,292.400 155.724,301.200 146.904 C 310.000 138.085,317.200 130.715,317.200 130.527 C 317.200 130.338,318.910 128.481,321.000 126.400 L 324.800 122.616 324.881 125.608 C 324.928 127.376,325.084 125.899,325.262 122.000 C 325.428 118.370,325.624 114.770,325.699 114.000 C 325.773 113.230,325.704 112.507,325.545 112.394 C 325.386 112.280,325.220 110.660,325.176 108.794 C 325.133 106.927,324.919 105.176,324.701 104.902 C 324.484 104.629,324.395 103.939,324.503 103.371 C 324.617 102.778,324.501 102.260,324.231 102.156 C 323.972 102.057,323.760 101.318,323.760 100.515 C 323.760 99.711,323.543 98.981,323.278 98.893 C 323.012 98.804,322.885 98.586,322.995 98.408 C 323.105 98.231,322.934 97.346,322.615 96.443 C 322.296 95.539,322.145 94.800,322.280 94.800 C 322.414 94.800,322.269 94.485,321.958 94.100 C 321.135 93.084,320.000 90.950,320.000 90.422 C 320.000 90.171,319.640 89.580,319.200 89.108 C 318.760 88.636,318.400 87.917,318.400 87.512 C 318.400 87.107,318.131 86.672,317.802 86.546 C 317.474 86.419,317.304 86.155,317.426 85.958 C 317.548 85.761,317.457 85.600,317.224 85.600 C 316.991 85.600,316.800 85.370,316.800 85.089 C 316.800 84.808,316.485 84.280,316.100 83.917 C 315.165 83.035,314.711 82.416,314.028 81.092 C 313.618 80.297,313.366 80.128,313.134 80.492 C 312.895 80.869,312.811 80.832,312.806 80.348 C 312.803 79.990,312.080 79.065,311.200 78.294 C 310.320 77.522,309.600 76.661,309.600 76.379 C 309.600 76.097,309.505 75.962,309.389 76.077 C 309.185 76.282,308.330 75.620,305.288 72.900 C 304.488 72.185,303.601 71.600,303.317 71.600 C 303.032 71.600,302.800 71.462,302.800 71.294 C 302.800 71.126,302.080 70.544,301.200 70.000 C 300.320 69.456,299.600 68.896,299.600 68.756 C 299.600 68.615,299.082 68.396,298.448 68.270 C 297.815 68.143,297.018 67.760,296.677 67.420 C 296.336 67.079,295.870 66.800,295.641 66.800 C 295.412 66.800,294.583 66.440,293.800 66.000 C 293.017 65.560,292.109 65.200,291.782 65.200 C 291.456 65.200,290.877 65.042,290.495 64.849 C 289.316 64.254,286.989 63.600,286.048 63.600 C 285.553 63.600,285.263 63.421,285.400 63.200 C 285.552 62.954,284.879 62.800,283.647 62.800 C 282.547 62.800,281.536 62.620,281.400 62.400 C 281.071 61.868,172.464 61.870,171.554 62.402 M238.800 198.441 C 238.800 198.638,238.429 198.800,237.976 198.800 C 237.424 198.800,237.252 198.965,237.453 199.300 C 237.628 199.591,237.439 199.550,237.000 199.200 C 236.561 198.850,236.372 198.809,236.547 199.100 C 236.819 199.552,236.373 199.785,235.500 199.647 C 235.335 199.621,235.200 199.780,235.200 200.000 C 235.200 200.220,234.930 200.400,234.600 200.400 C 234.270 200.400,234.000 200.573,234.000 200.784 C 234.000 200.996,233.606 201.536,233.125 201.984 C 232.643 202.433,232.375 202.800,232.530 202.800 C 232.684 202.800,232.355 203.521,231.798 204.403 C 231.063 205.568,230.859 206.295,231.052 207.065 C 231.243 207.826,231.125 208.265,230.635 208.624 C 230.150 208.979,230.087 209.207,230.419 209.412 C 230.763 209.624,230.743 209.790,230.343 210.044 C 229.943 210.297,229.932 210.389,230.300 210.394 C 230.583 210.397,230.800 210.901,230.800 211.557 C 230.800 212.194,231.055 212.812,231.368 212.932 C 231.693 213.057,231.889 213.571,231.826 214.140 C 231.745 214.884,231.868 215.072,232.324 214.897 C 232.753 214.732,232.835 214.819,232.604 215.194 C 232.366 215.578,232.429 215.629,232.831 215.381 C 233.136 215.192,233.686 215.016,234.052 214.989 C 234.419 214.962,237.974 211.668,241.952 207.670 C 245.931 203.671,249.369 200.400,249.593 200.400 C 249.817 200.400,250.000 200.206,250.000 199.969 C 250.000 199.724,249.418 199.589,248.645 199.655 C 247.899 199.720,247.002 199.533,246.650 199.242 C 246.286 198.939,245.419 198.780,244.633 198.872 C 243.876 198.960,243.288 198.864,243.328 198.657 C 243.368 198.451,242.365 198.237,241.100 198.182 C 239.835 198.126,238.800 198.243,238.800 198.441 M233.080 216.666 C 233.426 217.566,235.200 219.387,235.200 218.842 C 235.200 218.625,235.017 218.334,234.793 218.196 C 234.570 218.058,234.491 217.777,234.617 217.572 C 234.744 217.368,234.567 217.200,234.224 217.200 C 233.881 217.200,233.645 216.998,233.700 216.750 C 233.755 216.503,233.575 216.217,233.300 216.117 C 232.958 215.991,232.889 216.166,233.080 216.666 " stroke="none" fill="#74e0e6" fill-rule="evenodd"></path><path id="path2" d="M325.200 111.576 C 325.200 112.029,325.380 112.400,325.600 112.400 C 325.820 112.400,326.000 112.141,326.000 111.824 C 326.000 111.507,325.820 111.136,325.600 111.000 C 325.380 110.864,325.200 111.123,325.200 111.576 M325.500 115.733 C 325.335 116.136,325.164 119.196,325.121 122.533 C 325.077 125.870,324.978 127.262,324.902 125.627 L 324.762 122.654 320.981 126.419 C 318.901 128.490,317.200 130.338,317.200 130.527 C 317.200 130.715,310.000 138.085,301.200 146.904 C 292.400 155.724,285.200 163.086,285.200 163.266 C 285.200 163.445,281.853 166.969,277.762 171.096 C 273.671 175.223,270.077 178.946,269.776 179.369 C 269.145 180.255,268.929 179.907,268.679 177.600 C 268.596 176.830,268.499 182.185,268.464 189.500 L 268.400 202.800 266.400 202.800 C 265.300 202.800,264.400 202.620,264.400 202.400 C 264.400 202.180,263.511 202.000,262.424 202.000 C 261.337 202.000,260.353 201.848,260.239 201.662 C 260.124 201.477,259.119 201.347,258.006 201.373 C 256.596 201.407,256.038 201.278,256.165 200.947 C 256.289 200.623,255.781 200.482,254.557 200.500 C 253.573 200.515,252.559 200.319,252.304 200.064 C 251.736 199.496,250.000 199.448,250.000 200.000 C 250.000 200.220,249.820 200.400,249.600 200.400 C 249.379 200.400,245.873 203.734,241.807 207.809 C 235.292 214.339,234.289 215.196,233.358 215.027 C 232.102 214.799,231.972 214.691,231.835 213.758 C 231.777 213.365,231.526 212.975,231.277 212.892 C 231.028 212.809,231.224 213.650,231.712 214.761 C 232.201 215.872,232.746 216.785,232.924 216.791 C 233.102 216.796,233.122 216.597,232.968 216.348 C 232.797 216.071,232.904 215.974,233.244 216.098 C 233.550 216.209,233.755 216.502,233.700 216.750 C 233.645 216.997,233.870 217.200,234.200 217.200 C 234.530 217.200,234.769 217.335,234.730 217.500 C 234.572 218.178,235.777 220.018,236.258 219.833 C 236.542 219.724,236.898 219.835,237.049 220.079 C 237.215 220.348,237.141 220.411,236.862 220.238 C 235.997 219.704,236.396 220.621,237.286 221.212 C 238.287 221.877,241.319 224.916,244.000 227.942 C 244.990 229.060,246.015 229.980,246.277 229.987 C 246.540 229.994,247.068 230.530,247.451 231.178 C 247.834 231.826,248.294 232.266,248.473 232.155 C 248.653 232.044,248.800 232.147,248.800 232.385 C 248.800 232.976,253.065 237.201,253.362 236.904 C 253.493 236.774,253.600 236.891,253.600 237.165 C 253.600 237.613,254.967 239.060,257.647 241.449 C 258.171 241.916,259.410 243.215,260.400 244.336 C 261.390 245.457,262.455 246.380,262.767 246.387 C 263.078 246.394,263.226 246.507,263.095 246.639 C 262.877 246.856,270.498 254.592,274.962 258.686 C 275.973 259.613,276.800 260.558,276.800 260.786 C 276.800 261.014,277.070 261.200,277.400 261.200 C 277.730 261.200,278.000 261.378,278.000 261.596 C 278.000 262.113,287.887 272.000,288.404 272.000 C 288.622 272.000,288.800 272.225,288.800 272.500 C 288.801 273.192,292.488 275.200,293.759 275.200 C 294.332 275.200,294.800 275.380,294.800 275.600 C 294.800 275.820,295.779 276.000,296.976 276.000 C 298.173 276.000,299.264 275.820,299.400 275.600 C 299.536 275.380,300.155 275.200,300.775 275.200 C 301.395 275.200,302.121 274.936,302.389 274.613 C 302.657 274.290,303.004 274.065,303.159 274.113 C 303.644 274.263,362.000 215.688,362.000 215.051 C 362.000 214.719,362.180 214.336,362.400 214.200 C 362.620 214.064,362.800 213.513,362.800 212.976 C 362.800 212.439,362.980 212.000,363.200 212.000 C 363.426 212.000,363.600 210.867,363.600 209.400 C 363.600 207.933,363.426 206.800,363.200 206.800 C 362.980 206.800,362.800 206.260,362.800 205.600 C 362.800 204.940,362.620 204.400,362.400 204.400 C 362.180 204.400,362.000 204.159,362.000 203.864 C 362.000 203.091,358.813 199.896,357.400 199.253 C 356.740 198.952,355.887 198.548,355.505 198.353 C 354.549 197.867,350.000 197.905,350.000 198.400 C 350.000 198.620,349.111 198.800,348.024 198.800 C 346.937 198.800,345.936 198.980,345.800 199.200 C 345.664 199.420,344.753 199.600,343.776 199.600 C 342.799 199.600,342.000 199.780,342.000 200.000 C 342.000 200.220,341.100 200.400,340.000 200.400 C 338.900 200.400,338.000 200.580,338.000 200.800 C 338.000 201.020,337.111 201.200,336.024 201.200 C 334.937 201.200,333.936 201.380,333.800 201.600 C 333.664 201.820,332.653 202.000,331.553 202.000 C 330.321 202.000,329.648 202.154,329.800 202.400 C 329.952 202.647,329.271 202.800,328.025 202.800 L 326.004 202.800 325.902 158.900 C 325.846 134.755,325.665 115.330,325.500 115.733 M246.162 199.262 C 245.991 199.537,246.051 199.615,246.311 199.455 C 246.549 199.308,246.860 199.373,247.000 199.600 C 247.286 200.062,248.000 199.759,248.000 199.176 C 248.000 198.640,246.503 198.709,246.162 199.262 " stroke="none" fill="#9cecec" fill-rule="evenodd"></path><path id="path3" d="" stroke="none" fill="#1005ca4" fill-rule="evenodd"></path><path id="path4" d="" stroke="none" fill="#1005ca4" fill-rule="evenodd"></path></g></svg>