<?xml version="1.0" encoding="UTF-8"?>
<!DOCTYPE svg PUBLIC "-//W3C//DTD SVG 1.1//EN" "http://www.w3.org/Graphics/SVG/1.1/DTD/svg11.dtd">
<svg xmlns="http://www.w3.org/2000/svg" version="1.1" width="512px" height="512px" style="shape-rendering:geometricPrecision; text-rendering:geometricPrecision; image-rendering:optimizeQuality; fill-rule:evenodd; clip-rule:evenodd" xmlns:xlink="http://www.w3.org/1999/xlink">
<g><path style="opacity:0.999" fill="#fe5886" d="M 52.5,-0.5 C 120.167,-0.5 187.833,-0.5 255.5,-0.5C 255.5,84.8333 255.5,170.167 255.5,255.5C 170.167,255.5 84.8333,255.5 -0.5,255.5C -0.5,187.833 -0.5,120.167 -0.5,52.5C 6.5,24.1667 24.1667,6.5 52.5,-0.5 Z"/></g>
<g><path style="opacity:0.999" fill="#96fecc" d="M 255.5,-0.5 C 323.167,-0.5 390.833,-0.5 458.5,-0.5C 486.833,6.5 504.5,24.1667 511.5,52.5C 511.5,120.167 511.5,187.833 511.5,255.5C 426.167,255.5 340.833,255.5 255.5,255.5C 255.5,170.167 255.5,84.8333 255.5,-0.5 Z"/></g>
<g><path style="opacity:1" fill="#e83a70" d="M 126.5,75.5 C 135.219,75.2026 143.886,75.7026 152.5,77C 159.167,81.6667 159.167,86.3333 152.5,91C 145.518,90.6692 138.518,90.6692 131.5,91C 124.924,91.5362 120.091,94.7028 117,100.5C 116.832,107.163 116.999,113.829 117.5,120.5C 124.841,120.334 132.174,120.5 139.5,121C 146.422,126.471 146.089,131.471 138.5,136C 132.509,136.499 126.509,136.666 120.5,136.5C 122.192,146.88 119.859,156.214 113.5,164.5C 127.822,165.333 142.155,165.833 156.5,166C 159.366,167.393 160.699,169.726 160.5,173C 160.717,176.235 159.383,178.568 156.5,180C 134.833,180.667 113.167,180.667 91.5,180C 86.9083,177.224 85.7417,173.391 88,168.5C 95.2108,162.635 100.877,155.635 105,147.5C 105.499,143.848 105.665,140.182 105.5,136.5C 100.156,136.666 94.8229,136.499 89.5,136C 81.9112,131.471 81.5779,126.471 88.5,121C 93.1548,120.501 97.8215,120.334 102.5,120.5C 96.7058,97.7384 104.706,82.7384 126.5,75.5 Z"/></g>
<g><path style="opacity:1" fill="#06a255" d="M 376.5,78.5 C 383.175,78.3337 389.842,78.5004 396.5,79C 407.538,81.5934 416.705,87.0934 424,95.5C 425.326,103.171 422.159,106.671 414.5,106C 397.839,90.815 380.506,89.815 362.5,103C 360.38,105.409 358.38,107.909 356.5,110.5C 368.82,111.333 381.153,111.833 393.5,112C 397.861,114.226 399.361,117.726 398,122.5C 396.363,124.81 394.196,126.31 391.5,127C 378.171,127.5 364.837,127.667 351.5,127.5C 351.5,129.167 351.5,130.833 351.5,132.5C 364.837,132.333 378.171,132.5 391.5,133C 396.981,134.476 399.148,137.976 398,143.5C 396.833,145.333 395.333,146.833 393.5,148C 381.5,148.333 369.5,148.667 357.5,149C 375.321,168.672 394.321,169.672 414.5,152C 422.159,151.329 425.326,154.829 424,162.5C 419.751,167.744 414.584,171.911 408.5,175C 386.056,184.197 366.222,180.363 349,163.5C 345.413,159.333 342.58,154.666 340.5,149.5C 333.325,148.506 330.158,144.506 331,137.5C 337,132.5 337,127.5 331,122.5C 329.535,115.469 332.368,111.802 339.5,111.5C 343.343,100.82 350.009,92.3196 359.5,86C 365.06,82.9905 370.727,80.4905 376.5,78.5 Z"/></g>
<g><path style="opacity:0.999" fill="#ffcb65" d="M -0.5,255.5 C 84.8333,255.5 170.167,255.5 255.5,255.5C 255.5,340.833 255.5,426.167 255.5,511.5C 187.833,511.5 120.167,511.5 52.5,511.5C 24.1667,504.5 6.5,486.833 -0.5,458.5C -0.5,390.833 -0.5,323.167 -0.5,255.5 Z"/></g>
<g><path style="opacity:0.999" fill="#94e5f8" d="M 255.5,255.5 C 340.833,255.5 426.167,255.5 511.5,255.5C 511.5,323.167 511.5,390.833 511.5,458.5C 504.5,486.833 486.833,504.5 458.5,511.5C 390.833,511.5 323.167,511.5 255.5,511.5C 255.5,426.167 255.5,340.833 255.5,255.5 Z"/></g>
<g><path style="opacity:1" fill="#0397d8" d="M 361.5,315.5 C 365.909,314.618 369.409,315.952 372,319.5C 372.499,324.489 372.666,329.489 372.5,334.5C 376.5,334.5 380.5,334.5 384.5,334.5C 384.334,329.489 384.501,324.489 385,319.5C 389.62,314.177 394.286,314.177 399,319.5C 399.499,324.823 399.666,330.156 399.5,335.5C 414.884,340.58 421.384,351.247 419,367.5C 417.801,372.899 415.301,377.566 411.5,381.5C 419.05,388.996 421.55,397.996 419,408.5C 416.034,417.966 409.867,424.299 400.5,427.5C 399.671,432.467 399.171,437.467 399,442.5C 395.817,448.88 391.484,449.88 386,445.5C 384.596,439.956 384.096,434.29 384.5,428.5C 380.5,428.5 376.5,428.5 372.5,428.5C 372.666,433.511 372.499,438.511 372,443.5C 367.688,449.584 363.021,449.917 358,444.5C 357.501,439.177 357.334,433.844 357.5,428.5C 352.258,429.729 348.425,428.063 346,423.5C 345.333,395.167 345.333,366.833 346,338.5C 348.944,334.886 352.777,333.553 357.5,334.5C 357.334,329.489 357.501,324.489 358,319.5C 358.69,317.65 359.856,316.316 361.5,315.5 Z"/></g>
<g><path style="opacity:1" fill="#ff6f02" d="M 123.5,316.5 C 127.192,315.971 130.358,316.971 133,319.5C 134.082,325.421 134.915,331.421 135.5,337.5C 142.463,339.627 146.796,344.127 148.5,351C 148.044,355.456 145.544,357.956 141,358.5C 137.635,357.563 134.801,355.729 132.5,353C 123.376,349.896 117.71,353.063 115.5,362.5C 115.975,367.294 118.308,370.794 122.5,373C 143.753,374.246 153.586,385.413 152,406.5C 149.314,415.685 143.48,421.685 134.5,424.5C 134.666,430.176 134.499,435.843 134,441.5C 131.045,445.277 127.212,446.443 122.5,445C 120.513,443.681 119.346,441.848 119,439.5C 118.828,434.798 118.328,430.132 117.5,425.5C 110.868,423.199 106.202,418.866 103.5,412.5C 105.112,405.027 109.445,402.861 116.5,406C 122.525,411.781 128.691,411.948 135,406.5C 138.741,400.625 137.908,395.458 132.5,391C 127.268,389.299 121.934,387.966 116.5,387C 102.541,379.483 97.708,367.983 102,352.5C 105.031,345.302 110.198,340.302 117.5,337.5C 118.329,332.533 118.829,327.533 119,322.5C 119.979,320.032 121.479,318.032 123.5,316.5 Z"/></g>
<g><path style="opacity:1" fill="#94e5f8" d="M 361.5,349.5 C 372.838,349.333 384.172,349.5 395.5,350C 403.886,353.275 406.386,359.108 403,367.5C 401.127,369.709 398.96,371.542 396.5,373C 384.838,373.5 373.171,373.667 361.5,373.5C 361.5,365.5 361.5,357.5 361.5,349.5 Z"/></g>
<g><path style="opacity:1" fill="#92e4f8" d="M 360.5,389.5 C 372.838,389.333 385.171,389.5 397.5,390C 404.837,394.674 406.337,400.841 402,408.5C 400.786,410.049 399.286,411.215 397.5,412C 385.228,413.418 372.895,413.918 360.5,413.5C 360.5,405.5 360.5,397.5 360.5,389.5 Z"/></g>
</svg>
