<?xml version="1.0" ?><svg width="512px" height="512px" viewBox="0 0 512 512" id="Layer_1" style="enable-background:new 0 0 512 512;" version="1.1" xml:space="preserve" xmlns="http://www.w3.org/2000/svg" xmlns:xlink="http://www.w3.org/1999/xlink"><style type="text/css">
	.st0{fill:#2B79C2;}
	.st1{fill:#3B4652;}
	.st2{fill:#333333;}
</style><g><path class="st0" d="M385.6,301.8l-35.4-21.2c-13-7.3-28.6-8.7-42.7-3.9l-20.1,6.8c-7,2.4-14.3,3.6-21.6,3.6h-81   c-7.5,0-13.6,6.1-13.6,13.6c0,3.2,1.1,6.1,2.9,8.4c1.8,2.3,4.5,4.1,7.5,4.8l88.9,21.3c3.9,0.9,6.8,4,7.5,8c0.1,0.6,0.2,1.2,0.2,1.8   c0,5.3-4.3,9.9-9.8,9.9l-117.8,1.7c-10.4,0.1-20.4-4.1-27.6-11.6c-22.1-23.3-69.5-73.2-74.4-78c-6.3-6.3-21.1-2.1-14.8,13.7   s64.5,107.8,72.9,114.2c8.5,6.3,125.8,42.3,206.2,35.9c20.4-1.6,51.9-12.2,72.8-20V301.8z"/><path class="st1" d="M468.1,285h-54.7c-6.5,0-11.8,5.3-11.8,11.8v119.2c0,6.5,5.3,11.8,11.8,11.8h54.7c6.5,0,11.8-5.3,11.8-11.8   V296.7C479.8,290.2,474.6,285,468.1,285z M448.7,320.5h-15.9c-4.4,0-8-3.6-8-8s3.6-8,8-8h15.9c4.4,0,8,3.6,8,8   S453.1,320.5,448.7,320.5z"/><path class="st0" d="M435.7,142.2h-30.1l-14.3,14.3L377,142.2h-22.2l-16.4,16.4l-15.9-15.9v-0.5h-30.7l-24.3-21.7h-47.3   c6.1,13,9.3,27.3,9.3,41.8c0,14.6-3.2,28.9-9.4,41.9l215.4,0.4l23.3-31.2L435.7,142.2z"/><path class="st1" d="M202.3,120.6c-14.3-24.1-40.5-40.2-70.5-40.2c-45.2,0-81.9,36.7-81.9,81.9s36.7,81.9,81.9,81.9   c29.9,0,56.1-16.1,70.4-40c7.3-12.3,11.5-26.6,11.5-41.9C213.7,147.1,209.5,132.8,202.3,120.6z M113.3,187.7   c-14,0-25.4-11.4-25.4-25.4S99.3,137,113.3,137s25.4,11.4,25.4,25.4S127.3,187.7,113.3,187.7z"/></g></svg>